<svg width="864" height="742" viewBox="0 0 864 742" fill="none" xmlns="http://www.w3.org/2000/svg">
<g id="barbecue 1">
<path id="Vector" d="M427.946 742C664.295 742 855.893 730.101 855.893 715.422C855.893 700.743 664.295 688.844 427.946 688.844C191.598 688.844 0 700.743 0 715.422C0 730.101 191.598 742 427.946 742Z" fill="#3F3D56"/>
<path id="Vector_2" d="M435.119 425.277H420.774V433.029H435.119V425.277Z" fill="#3F3D56"/>
<path id="Vector_3" d="M463.808 425.277H449.463V433.029H463.808V425.277Z" fill="#3F3D56"/>
<path id="Vector_4" d="M492.497 425.277H478.152V433.029H492.497V425.277Z" fill="#3F3D56"/>
<path id="Vector_5" d="M521.186 425.277H506.841V433.029H521.186V425.277Z" fill="#3F3D56"/>
<path id="Vector_6" d="M549.875 425.277H535.531V433.029H549.875V425.277Z" fill="#3F3D56"/>
<path id="Vector_7" d="M578.564 425.277H564.22V433.029H578.564V425.277Z" fill="#3F3D56"/>
<path id="Vector_8" d="M607.254 425.277H592.909V433.029H607.254V425.277Z" fill="#3F3D56"/>
<path id="Vector_9" d="M635.943 425.277H621.598V433.029H635.943V425.277Z" fill="#3F3D56"/>
<path id="Vector_10" d="M664.632 425.277H650.287V433.029H664.632V425.277Z" fill="#3F3D56"/>
<path id="Vector_11" d="M693.321 425.277H678.976V433.029H693.321V425.277Z" fill="#3F3D56"/>
<path id="Vector_12" d="M722.01 425.277H707.665V433.029H722.01V425.277Z" fill="#3F3D56"/>
<path id="Vector_13" d="M754.883 430.26C754.883 472.554 736.748 513.115 704.466 543.022C672.184 572.928 628.401 589.729 582.748 589.729C537.095 589.729 493.312 572.928 461.031 543.022C428.749 513.115 410.613 472.554 410.613 430.26H754.883Z" fill="#3F3D56"/>
<path id="Vector_14" d="M746.563 431.279L637.066 128.908C658.496 122.232 681.137 119.536 703.692 120.974C726.248 122.411 748.277 127.954 768.518 137.285C788.76 146.616 806.817 159.552 821.658 175.353C836.499 191.154 847.831 209.511 855.008 229.373C856.168 232.574 857.22 235.796 858.152 239.019C869.423 278.203 864.158 319.892 843.429 355.608C822.699 391.323 788.062 418.382 746.563 431.279Z" fill="#3F3D56"/>
<path id="Vector_15" d="M750.699 455.177C762.583 455.177 772.216 446.252 772.216 435.243C772.216 424.234 762.583 415.31 750.699 415.31C738.816 415.31 729.182 424.234 729.182 435.243C729.182 446.252 738.816 455.177 750.699 455.177Z" fill="#3F3D56"/>
<path id="Vector_16" d="M531.945 471.789C530.36 471.789 528.84 472.372 527.719 473.41C526.598 474.449 525.968 475.857 525.968 477.326C525.968 478.794 526.598 480.203 527.719 481.241C528.84 482.279 530.36 482.863 531.945 482.863H634.748C636.333 482.863 637.853 482.279 638.974 481.241C640.095 480.203 640.725 478.794 640.725 477.326C640.725 475.857 640.095 474.449 638.974 473.41C637.853 472.372 636.333 471.789 634.748 471.789H531.945Z" fill="#6C63FF"/>
<path id="Vector_17" d="M725.596 718.744L704.192 719.477L627.078 565.838L646.589 557.434L725.596 718.744Z" fill="#3F3D56"/>
<path id="Vector_18" d="M439.9 718.744L461.305 719.477L538.419 565.838L518.908 557.434L439.9 718.744Z" fill="#3F3D56"/>
<path id="Vector_19" d="M671.804 630.15H494.888V641.224H671.804V630.15Z" fill="#3F3D56"/>
<path id="Vector_20" d="M641.443 123.263C640.602 123.263 639.773 123.446 639.023 123.796C638.272 124.147 637.621 124.656 637.121 125.282C636.621 125.908 636.286 126.634 636.143 127.401C636.001 128.169 636.054 128.956 636.299 129.701L640.834 143.471C641.252 144.734 642.194 145.792 643.452 146.412C644.711 147.032 646.185 147.164 647.548 146.779C648.912 146.393 650.055 145.522 650.726 144.357C651.397 143.191 651.541 141.826 651.126 140.562L646.591 126.793C646.253 125.772 645.57 124.878 644.644 124.243C643.717 123.607 642.595 123.264 641.443 123.263Z" fill="#6C63FF"/>
<path id="Vector_21" d="M403.441 433.029C402.014 433.029 400.646 433.554 399.637 434.488C398.628 435.423 398.062 436.691 398.062 438.012C398.062 439.334 398.628 440.601 399.637 441.536C400.646 442.471 402.014 442.996 403.441 442.996H418.981C420.408 442.996 421.776 442.471 422.785 441.536C423.793 440.601 424.36 439.334 424.36 438.012C424.36 436.691 423.793 435.423 422.785 434.488C421.776 433.554 420.408 433.029 418.981 433.029H403.441Z" fill="#6C63FF"/>
<path id="Vector_22" d="M531.945 396.484H467.394C466.988 396.484 466.593 396.495 466.199 396.528C461.981 396.807 458.034 398.555 455.151 401.42C452.268 404.285 450.663 408.055 450.659 411.972C450.654 415.889 452.25 419.662 455.127 422.533C458.003 425.404 461.946 427.16 466.163 427.447C466.569 427.48 466.976 427.492 467.394 427.492H531.945C536.383 427.492 540.64 425.858 543.778 422.951C546.917 420.043 548.68 416.099 548.68 411.988C548.68 407.876 546.917 403.932 543.778 401.025C540.64 398.117 536.383 396.484 531.945 396.484V396.484Z" fill="#FF6584"/>
<path id="Vector_23" opacity="0.2" d="M460.891 426.262C471.889 424.956 480.543 412.098 480.543 396.484H478.152C478.152 411.755 469.57 424.169 459.026 424.169V425.41L460.891 426.262Z" fill="black"/>
<path id="Vector_24" opacity="0.2" d="M484.129 426.384V424.169C494.675 424.169 503.255 411.75 503.255 396.484H505.646C505.646 412.971 495.994 426.384 484.129 426.384Z" fill="black"/>
<path id="Vector_25" opacity="0.2" d="M509.232 426.384V424.169C519.778 424.169 528.358 411.75 528.358 396.484H530.749C530.749 412.971 521.097 426.384 509.232 426.384Z" fill="black"/>
<path id="Vector_26" d="M649.092 396.484H584.541C584.135 396.484 583.74 396.495 583.346 396.528C579.129 396.807 575.182 398.555 572.299 401.42C569.416 404.285 567.81 408.055 567.806 411.972C567.801 415.889 569.398 419.662 572.274 422.533C575.15 425.404 579.093 427.16 583.31 427.447C583.716 427.48 584.123 427.492 584.541 427.492H649.092C653.53 427.492 657.787 425.858 660.926 422.951C664.064 420.043 665.827 416.099 665.827 411.988C665.827 407.876 664.064 403.932 660.926 401.025C657.787 398.117 653.53 396.484 649.092 396.484V396.484Z" fill="#FF6584"/>
<path id="Vector_27" opacity="0.2" d="M578.038 426.262C589.036 424.956 597.691 412.098 597.691 396.484H595.3C595.3 411.755 586.717 424.169 576.174 424.169V425.41L578.038 426.262Z" fill="black"/>
<path id="Vector_28" opacity="0.2" d="M601.277 426.384V424.169C611.823 424.169 620.403 411.75 620.403 396.484H622.793C622.793 412.971 613.141 426.384 601.277 426.384Z" fill="black"/>
<path id="Vector_29" opacity="0.2" d="M626.38 426.384V424.169C636.926 424.169 645.506 411.75 645.506 396.484H647.896C647.896 412.971 638.244 426.384 626.38 426.384Z" fill="black"/>
<g id="barbecue">
<path id="Vector_30" d="M527.22 247.598C518.761 243.364 508.302 247.981 504.086 255.476C498.959 264.592 503.209 275.552 509.188 283.344C515.402 291.441 523.835 298.124 527.982 307.481C531.95 316.286 532.421 326.11 529.31 335.207C526.2 344.303 519.71 352.084 510.993 357.167C507.102 359.447 510.697 365.2 514.613 362.905C523.162 357.957 529.926 350.761 534.041 342.236C538.155 333.71 539.434 324.242 537.714 315.041C536.841 310.269 535.176 305.65 532.779 301.35C530.179 296.961 527.048 292.861 523.446 289.13C517.223 282.307 509.39 274.786 509 265.294C508.928 264.063 509.021 262.828 509.276 261.618C509.462 260.773 509.739 259.947 510.103 259.152C510.973 257.447 512.264 255.955 513.871 254.797C515.361 253.696 517.124 252.956 519.001 252.645C520.574 252.429 522.181 252.67 523.6 253.335C527.662 255.368 531.287 249.633 527.22 247.598V247.598Z" fill="#E6E6E6"/>
<path id="Vector_31" d="M635.143 287.79C631.541 286.718 627.693 286.571 624.007 287.364C620.322 288.158 616.937 289.862 614.215 292.297C612.808 293.637 611.766 295.269 611.174 297.057C610.583 298.845 610.46 300.737 610.816 302.578C611.499 306.604 614.243 310.181 617.22 313.063C623.045 318.702 631.198 322.348 636.082 328.822C638.248 331.581 639.607 334.812 640.028 338.201C640.279 341.246 639.676 344.299 638.278 347.064C634.634 353.926 627.401 358.593 619.772 361.597C617.99 362.299 617.597 364.734 618.486 366.142C618.983 366.886 619.769 367.424 620.682 367.646C621.595 367.868 622.566 367.756 623.392 367.334C637.43 361.806 650.419 349.423 646.547 334.209C644.51 326.206 638.268 320.558 631.545 315.648C628.206 313.38 625.053 310.887 622.111 308.189C619.786 305.902 617.371 302.779 617.798 299.679C617.969 298.601 618.539 297.611 619.409 296.879C620.465 295.985 621.664 295.247 622.962 294.691C624.555 293.984 626.283 293.577 628.046 293.492C629.81 293.407 631.574 293.647 633.237 294.198C634.154 294.423 635.13 294.307 635.955 293.873C636.78 293.439 637.388 292.722 637.648 291.877C637.882 291.028 637.751 290.128 637.284 289.366C636.817 288.605 636.05 288.04 635.143 287.79V287.79Z" fill="#E6E6E6"/>
<path id="Vector_32" d="M580.543 193.272C578.406 191.581 575.708 190.619 572.898 190.545C570.233 190.592 567.643 191.368 565.453 192.775C560.508 196.104 557.009 200.96 555.588 206.468C551.964 219.329 556.692 233.191 563.26 244.517C566.581 250.244 570.448 255.679 573.791 261.393C577.014 266.859 579.488 272.675 581.156 278.708C584.559 291.079 584.863 304.006 582.044 316.502C579.174 328.94 573.136 341.256 562.864 349.837C562.191 350.46 561.813 351.306 561.813 352.187C561.813 353.068 562.191 353.913 562.864 354.536C563.536 355.159 564.448 355.509 565.399 355.509C566.351 355.509 567.263 355.159 567.935 354.536C577.053 346.919 583.15 336.471 586.831 325.727C590.892 313.593 592.079 300.789 590.313 288.191C589.514 281.917 587.972 275.744 585.715 269.783C583.269 263.778 580.214 258.002 576.592 252.531C569.851 241.972 562.674 231.292 561.699 218.719C561.219 212.537 562.054 206.092 566.182 201.12C565.956 201.392 566.363 200.922 566.365 200.92C566.615 200.642 566.875 200.372 567.144 200.109C567.656 199.6 568.206 199.125 568.791 198.688C568.667 198.779 568.349 198.976 568.927 198.605C569.215 198.42 569.508 198.243 569.809 198.079C570.055 197.945 570.307 197.827 570.558 197.704C570.707 197.633 570.858 197.567 571.011 197.504C570.662 197.644 570.682 197.645 571.07 197.508C571.351 197.427 572.74 197.149 571.969 197.239C572.226 197.211 572.485 197.195 572.743 197.192C572.853 197.191 573.821 197.237 573.348 197.189C572.795 197.133 573.785 197.28 573.792 197.281C574.102 197.351 574.406 197.441 574.702 197.548C573.956 197.272 575.926 198.298 575.472 197.971C576.158 198.568 577.065 198.901 578.007 198.901C578.949 198.901 579.856 198.568 580.543 197.971C581.78 196.824 582.081 194.38 580.543 193.272L580.543 193.272Z" fill="#E6E6E6"/>
</g>
<path id="Vector_33" d="M305.166 692.584L278.129 699.229L228.47 486.58L284.199 481.979L305.166 692.584Z" fill="#FFB9B9"/>
<path id="Vector_34" d="M181.464 695.852L153.805 699.724L129.497 483.323L185.435 484.385L181.464 695.852Z" fill="#FFB9B9"/>
<path id="Vector_35" d="M167.223 387.923L169.777 432.089C169.871 433.713 169.586 435.337 168.943 436.851C168.299 438.364 167.312 439.732 166.047 440.861C164.783 441.99 163.271 442.853 161.614 443.393C159.958 443.932 158.195 444.135 156.446 443.988V443.988C153.588 443.747 150.912 442.584 148.886 440.701C146.859 438.818 145.612 436.335 145.361 433.686L140.738 384.856L104.32 270.352L105.424 196.743L148.462 198.787L167.223 387.923Z" fill="#FFB9B9"/>
<path id="Vector_36" d="M190.397 496.292C168.839 489.358 143.825 487.995 115.356 492.203C119.393 447.895 121.732 406.75 119.77 373.61H266.543L190.397 496.292Z" fill="#2F2E41"/>
<path id="Vector_37" d="M293.028 495.27C270.808 506.159 238.666 511.372 201.433 513.672L155.084 376.677L268.75 374.632L293.028 495.27Z" fill="#2F2E41"/>
<path id="Vector_38" d="M350.244 714.815L270.285 717.557C260.042 717.909 259.502 709.76 261.436 700.435L270.902 675.394C292.215 694.737 294.222 695.819 303.359 668.302L331.243 688.705L351.882 691.983C354.773 692.442 357.394 693.834 359.283 695.912C361.171 697.991 362.205 700.621 362.2 703.338V703.338C362.195 706.312 360.947 709.168 358.718 711.308C356.489 713.448 353.452 714.705 350.244 714.815V714.815Z" fill="#2F2E41"/>
<path id="Vector_39" d="M229.14 714.815L149.181 717.557C138.939 717.909 138.399 709.76 140.332 700.435L149.799 675.394C171.112 694.737 173.119 695.819 182.255 668.302L210.139 688.705L230.779 691.983C233.669 692.442 236.291 693.834 238.18 695.912C240.068 697.991 241.102 700.621 241.097 703.338V703.338C241.092 706.312 239.844 709.168 237.615 711.308C235.385 713.448 232.348 714.705 229.14 714.815Z" fill="#2F2E41"/>
<path id="Vector_40" d="M247.782 88.3734C271.552 88.3734 290.821 70.5222 290.821 48.5016C290.821 26.4811 271.552 8.62988 247.782 8.62988C224.013 8.62988 204.744 26.4811 204.744 48.5016C204.744 70.5222 224.013 88.3734 247.782 88.3734Z" fill="#FFB9B9"/>
<path id="Vector_41" d="M225.711 119.044L174.948 104.731L209.158 57.7024L247.782 73.038L225.711 119.044Z" fill="#FFB9B9"/>
<path id="Vector_42" d="M273.164 385.878C220.98 396.747 163.051 392.435 113.149 379.744C125.099 318.01 119.329 251.7 107.631 197.765C98.4744 155.549 122.629 120.124 162.809 102.686C171.445 99.817 180.43 97.9427 189.56 97.1056C217.745 94.7922 242.544 114.371 245.485 140.442L273.164 385.878Z" fill="#6C63FF"/>
<path id="Vector_43" d="M137.427 218.212L101.01 214.123L112.045 160.961H137.427V218.212Z" fill="#6C63FF"/>
<path id="Vector_44" d="M247.18 54.8146L240.587 52.0999C239.093 51.4867 237.473 51.1818 235.839 51.2063C234.205 51.2307 232.597 51.584 231.125 52.2417C229.654 52.8994 228.354 53.8457 227.316 55.015C226.278 56.1843 225.528 57.5487 225.116 59.0136V59.0136L215.927 74.3941L193.041 71.0382L193.841 38.4791C194.883 32.3264 197.277 26.4372 200.875 21.1762C204.473 15.9152 209.198 11.3942 214.758 7.8931C220.317 4.39201 226.594 1.9853 233.198 0.821947C239.802 -0.341411 246.594 -0.236662 253.153 1.12971L253.778 1.26063C264.95 3.6021 279.455 11.2015 287.026 19.1788L301.134 34.0422C301.802 34.7473 302.25 35.6088 302.427 36.5331C302.605 37.4573 302.505 38.4089 302.14 39.2845C301.774 40.16 301.157 40.926 300.354 41.4992C299.552 42.0724 298.595 42.4308 297.588 42.5355L278.294 44.5078L247.18 54.8146Z" fill="#2F2E41"/>
<path id="Vector_45" d="M389.935 326.731L365.221 346.813C364.864 347.103 364.396 347.25 363.922 347.221C363.448 347.192 363.006 346.99 362.692 346.659C362.379 346.328 362.22 345.895 362.251 345.456C362.282 345.016 362.5 344.606 362.857 344.315L387.57 324.234L382.84 319.238L358.127 339.32C357.769 339.61 357.302 339.757 356.828 339.728C356.354 339.699 355.911 339.497 355.598 339.166C355.285 338.835 355.126 338.402 355.157 337.963C355.187 337.523 355.405 337.113 355.762 336.823L380.476 316.741L375.746 311.745L351.033 331.827C350.856 331.971 350.65 332.082 350.427 332.152C350.204 332.222 349.968 332.251 349.733 332.237C349.498 332.223 349.268 332.166 349.057 332.07C348.845 331.973 348.656 331.839 348.501 331.675C348.346 331.511 348.227 331.32 348.151 331.113C348.075 330.907 348.044 330.688 348.06 330.47C348.075 330.252 348.137 330.04 348.241 329.844C348.346 329.648 348.491 329.473 348.668 329.33L373.381 309.248L367.469 303.004L332.545 331.383C329.428 333.917 327.345 337.366 326.644 341.153C325.944 344.941 326.668 348.836 328.697 352.187L223.257 437.867L232.716 447.858L338.088 362.233C341.302 364.584 345.303 365.817 349.397 365.72C353.491 365.622 357.418 364.2 360.498 361.699L395.846 332.975L389.935 326.731Z" fill="#E6E6E6"/>
<path id="Vector_46" d="M269.853 387.923L272.407 432.089C272.501 433.713 272.217 435.337 271.573 436.851C270.93 438.364 269.942 439.732 268.677 440.861C267.413 441.99 265.901 442.853 264.244 443.393C262.588 443.932 260.825 444.135 259.077 443.988V443.988C256.218 443.747 253.542 442.584 251.516 440.701C249.49 438.818 248.242 436.335 247.992 433.686L243.368 384.856L206.951 270.352L208.054 196.743L251.093 198.787L269.853 387.923Z" fill="#FFB9B9"/>
<path id="Vector_47" d="M254.403 210.033C241.308 198.396 224.023 197.969 204.744 202.877V147.933C204.744 141.356 207.564 135.048 212.584 130.397C217.605 125.746 224.414 123.133 231.513 123.133V123.133C234.781 123.133 238.016 123.739 241.027 124.913C244.039 126.088 246.766 127.809 249.05 129.975C251.333 132.14 253.126 134.707 254.323 137.524C255.52 140.341 256.097 143.351 256.02 146.377L254.403 210.033Z" fill="#6C63FF"/>
</g>
</svg>
